<svg xmlns="http://www.w3.org/2000/svg" version="1.1" xmlns:xlink="http://www.w3.org/1999/xlink" width="1000" height="1000"><g clip-path="url(#SvgjsClipPath1003)"><rect width="1000" height="1000" fill="#ffffff"></rect><g transform="matrix(3.5,0,0,3.5,150,150)"><svg xmlns="http://www.w3.org/2000/svg" version="1.1" xmlns:xlink="http://www.w3.org/1999/xlink" width="200" height="200"><svg xmlns="http://www.w3.org/2000/svg" version="1.1" xmlns:xlink="http://www.w3.org/1999/xlink" viewBox="0 0 200 200"><rect width="200" height="200" fill="url('#gradient')"></rect><defs><linearGradient id="gradient" gradientTransform="rotate(117 0.5 0.5)"><stop offset="0%" stop-color="#cea760"></stop><stop offset="100%" stop-color="#7e403b"></stop></linearGradient><clipPath id="SvgjsClipPath1003"><rect width="1000" height="1000" x="0" y="0" rx="350" ry="350"></rect></clipPath></defs><g><g fill="#f0631c" transform="matrix(10.785786802030456,0,0,10.785786802030456,40.67523881838407,181.0010220818108)" stroke="#ab3523" stroke-width="0.2"><path d="M2.91-15.21L2.91-15.21Q4.98-15.21 5.68-13.45L5.68-13.45L9.66-3.50L9.82-3.13Q10.20-2.35 10.72-2.34L10.72-2.34L11.06-2.34L11.05 0.14Q10.74 0.19 9.83 0.19L9.83 0.19Q7.52 0.19 6.73-1.88L6.73-1.88L5.29-6.03L3.45 0L-0.06 0L3.64-10.51L3.07-11.83Q2.71-12.65 1.74-12.65L1.74-12.65L1.10-12.62L1.02-14.96Q1.85-15.21 2.91-15.21Z"></path></g></g></svg></svg></g></g></svg>